<svg width="420" height="420" viewBox="0 0 420 420" fill="none" xmlns="http://www.w3.org/2000/svg">
<rect width="420" height="420" rx="100" fill="black"/>
<path fill-rule="evenodd" clip-rule="evenodd" d="M204.565 56.8914C207.747 55.7029 211.253 55.7029 214.435 56.8914L326.88 98.8924C332.366 100.942 336 106.165 336 112.001V210.004C336 258.255 303.929 296.81 274.978 322.042C260.207 334.916 245.503 344.978 234.519 351.816C229.012 355.244 224.403 357.885 221.139 359.685C219.506 360.586 218.206 361.277 217.296 361.753L216.229 362.305L215.927 362.458L215.836 362.504L215.806 362.519C215.806 362.519 215.786 362.529 209.5 350.007C203.214 362.529 203.205 362.525 203.205 362.525L203.164 362.504L203.073 362.458L202.771 362.305L201.704 361.753C200.794 361.277 199.494 360.586 197.861 359.685C194.597 357.885 189.988 355.244 184.481 351.816C173.497 344.978 158.793 334.916 144.022 322.042C115.071 296.81 83 258.255 83 210.004V112.001C83 106.165 86.6344 100.942 92.1203 98.8924L204.565 56.8914ZM209.5 350.007L203.205 362.525C207.163 364.496 211.849 364.49 215.806 362.519L209.5 350.007ZM209.5 334.085C212.194 332.564 215.638 330.551 219.62 328.072C229.72 321.784 243.126 312.597 256.467 300.97C283.738 277.201 307.889 245.754 307.889 210.004V121.704L209.5 84.9527L111.111 121.704V210.004C111.111 245.754 135.262 277.201 162.533 300.97C175.874 312.597 189.28 321.784 199.38 328.072C203.362 330.551 206.806 332.564 209.5 334.085Z" fill="white"/>
</svg>
